<?xml version="1.0" encoding="UTF-8" standalone="no"?>
<!-- Created with Inkscape (http://www.inkscape.org/) -->

<svg
   xmlns:dc="http://purl.org/dc/elements/1.1/"
   xmlns:cc="http://creativecommons.org/ns#"
   xmlns:rdf="http://www.w3.org/1999/02/22-rdf-syntax-ns#"
   xmlns:svg="http://www.w3.org/2000/svg"
   xmlns="http://www.w3.org/2000/svg"
   version="1.2"
   width="1052.3622"
   height="744.09448"
   id="svg2">
  <defs
     id="defs4" />
  <metadata
     id="metadata7">
    <rdf:RDF>
      <cc:Work
         rdf:about="">
        <dc:format>image/svg+xml</dc:format>
        <dc:type
           rdf:resource="http://purl.org/dc/dcmitype/StillImage" />
        <dc:title></dc:title>
      </cc:Work>
    </rdf:RDF>
  </metadata>
  <g
     transform="translate(0,-308.26769)"
     id="layer1">
    <text
       x="211.93182"
       y="278.18539"
       transform="translate(0,308.26769)"
       id="text2996"
       xml:space="preserve"
       style="font-size:40px;font-style:normal;font-weight:normal;line-height:125%;letter-spacing:0px;word-spacing:0px;fill:#000000;fill-opacity:1;stroke:none;font-family:Sans"><tspan
         x="211.93182"
         y="278.18539"
         id="tspan2998" /></text>
    <g
       transform="matrix(10.689133,-0.00939765,0.00939765,10.689133,-5554.9409,-4485.9747)"
       id="g3098">
      <path
         d="m 569.28125,144.71875 c -3e-4,0.0135 3e-4,0.0177 0,0.0312 -2.3837,0.10689 -5.75576,0.94011 -8.96875,3.4375 -2.93652,2.28249 -6.61043,2.51769 -9.875,2.5 -4.72255,-0.0256 -9.57004,3.10044 -12.375,7.4375 -1.60807,2.48643 -2.1875,4.85495 -2.1875,8.84375 0,7.26377 2.29193,11.95145 7.4375,15.15625 l 4.1875,2.59375 0.0312,9.25 0.0312,9.25 21.875,0 c 22.1138,0.0677 22.5,0 22.5,0 l 0.0312,-9.25 0.0312,-9.25 4.28125,-2.59375 c 5.28728,-3.2048 7.65625,-7.89248 7.65625,-15.15625 0,-3.9888 -0.59764,-6.35732 -2.25,-8.84375 -2.88221,-4.33706 -7.86615,-7.4631 -12.71875,-7.4375 -3.35448,0.0177 -7.13886,-0.21751 -10.15625,-2.5 -3.30612,-2.50089 -6.76883,-3.33254 -9.21875,-3.4375 1.7e-4,-0.0178 -1.7e-4,-0.0134 0,-0.0312 -0.0497,9.5e-4 -0.10561,-0.002 -0.15625,0 -0.0503,-0.002 -0.10684,9.2e-4 -0.15625,0 z"
         transform="translate(0,308.26769)"
         id="path3040"
         style="fill:#334b6c" />
      <path
         d="m 569.34328,457.51429 c -2.5e-4,0.0114 2.5e-4,0.0149 0,0.0263 -1.99638,0.0901 -4.82051,0.7925 -7.51143,2.89777 -2.45937,1.9241 -5.69208,2.58967 -8.4262,2.57476 -3.95518,-0.0216 -9.10537,1.52327 -11.45455,5.17935 -1.34679,2.09602 -1.6763,4.24842 -1.6763,7.61092 0,6.12326 1.76376,8.67303 6.07322,11.37463 l 6.15511,3.58838 -0.12967,8.26492 0.0261,8.10915 17.07445,0 c 16.65139,0.36853 17.75365,0 17.75365,0 l 0.0261,-8.10915 10e-4,-8.88798 4.38936,-2.65379 c 4.42816,-2.7016 7.65832,-5.25137 7.65832,-11.37463 0,-3.3625 -0.65629,-5.5149 -2.04017,-7.61092 -2.41388,-3.65608 -7.36682,-5.20093 -11.43093,-5.17935 -2.80941,0.0149 -5.97887,-0.96219 -8.50597,-2.88629 -2.76892,-2.10822 -5.66898,-2.8093 -7.72081,-2.89777 1.4e-4,-0.015 -1.4e-4,-0.0113 0,-0.0263 -0.0417,8e-4 -0.0885,-0.002 -0.13086,0 -0.0422,-0.002 -0.0895,7.8e-4 -0.13086,0 z"
         id="CookHat"
         style="fill:#ffffff" />
    </g>
    <flowRoot
       transform="matrix(5.0669263,0,0,5.0669263,-1003.7354,-962.19218)"
       id="flowRoot2985"
       xml:space="preserve"
       style="font-size:40px;font-style:normal;font-variant:normal;font-weight:normal;font-stretch:normal;line-height:125%;letter-spacing:0px;word-spacing:0px;fill:#354b6d;fill-opacity:1;stroke:none;font-family:Droid Sans;-inkscape-font-specification:Droid Sans"><flowRegion
         id="flowRegion2987"><rect
           width="433.52274"
           height="103.97727"
           x="261.93182"
           y="271.93539"
           id="rect2989"
           style="fill:#354b6d;fill-opacity:1" /></flowRegion><flowPara
         id="flowPara2991"
         style="font-size:72px;fill:#354b6d;fill-opacity:1">RB</flowPara></flowRoot>  </g>
</svg>
