<?xml version="1.0" encoding="UTF-8" standalone="no"?>
<!-- Created with Inkscape (http://www.inkscape.org/) -->

<svg
   xmlns:dc="http://purl.org/dc/elements/1.1/"
   xmlns:cc="http://creativecommons.org/ns#"
   xmlns:rdf="http://www.w3.org/1999/02/22-rdf-syntax-ns#"
   xmlns:svg="http://www.w3.org/2000/svg"
   xmlns="http://www.w3.org/2000/svg"
   version="1.2"
   width="1052.3622"
   height="744.09448"
   id="svg2">
  <defs
     id="defs4" />
  <metadata
     id="metadata7">
    <rdf:RDF>
      <cc:Work
         rdf:about="">
        <dc:format>image/svg+xml</dc:format>
        <dc:type
           rdf:resource="http://purl.org/dc/dcmitype/StillImage" />
        <dc:title></dc:title>
      </cc:Work>
    </rdf:RDF>
  </metadata>
  <g
     transform="translate(0,-308.26769)"
     id="layer1">
    <text
       x="211.93182"
       y="278.18539"
       transform="translate(0,308.26769)"
       id="text2996"
       xml:space="preserve"
       style="font-size:40px;font-style:normal;font-weight:normal;line-height:125%;letter-spacing:0px;word-spacing:0px;fill:#000000;fill-opacity:1;stroke:none;font-family:Sans"><tspan
         x="211.93182"
         y="278.18539"
         id="tspan2998" /></text>
    <g
       transform="matrix(2.7457537,0,0,2.7457537,-807.39953,-1240.341)"
       id="g3115">
      <flowRoot
         transform="translate(32.954546,390.08587)"
         id="flowRoot2985"
         xml:space="preserve"
         style="font-size:40px;font-style:normal;font-variant:normal;font-weight:normal;font-stretch:normal;line-height:125%;letter-spacing:0px;word-spacing:0px;fill:#354b6d;fill-opacity:1;stroke:none;font-family:Droid Sans;-inkscape-font-specification:Droid Sans"><flowRegion
           id="flowRegion2987"><rect
             width="433.52274"
             height="103.97727"
             x="261.93182"
             y="271.93539"
             id="rect2989"
             style="fill:#354b6d;fill-opacity:1" /></flowRegion><flowPara
           id="flowPara2991"
           style="font-size:72px;fill:#354b6d;fill-opacity:1">R  cipeBook</flowPara></flowRoot>      <g
         transform="matrix(0.76364135,0.43861709,-0.43861709,0.76364135,413.35997,44.363727)"
         id="g3098">
        <path
           d="m 569.28125,144.71875 c -3e-4,0.0135 3e-4,0.0177 0,0.0312 -2.3837,0.10689 -5.75576,0.94011 -8.96875,3.4375 -2.93652,2.28249 -6.61043,2.51769 -9.875,2.5 -4.72255,-0.0256 -9.57004,3.10044 -12.375,7.4375 -1.60807,2.48643 -2.1875,4.85495 -2.1875,8.84375 0,7.26377 2.29193,11.95145 7.4375,15.15625 l 4.1875,2.59375 0.0312,9.25 0.0312,9.25 21.875,0 c 22.1138,0.0677 22.5,0 22.5,0 l 0.0312,-9.25 0.0312,-9.25 4.28125,-2.59375 c 5.28728,-3.2048 7.65625,-7.89248 7.65625,-15.15625 0,-3.9888 -0.59764,-6.35732 -2.25,-8.84375 -2.88221,-4.33706 -7.86615,-7.4631 -12.71875,-7.4375 -3.35448,0.0177 -7.13886,-0.21751 -10.15625,-2.5 -3.30612,-2.50089 -6.76883,-3.33254 -9.21875,-3.4375 1.7e-4,-0.0178 -1.7e-4,-0.0134 0,-0.0312 -0.0497,9.5e-4 -0.10561,-0.002 -0.15625,0 -0.0503,-0.002 -0.10684,9.2e-4 -0.15625,0 z"
           transform="translate(0,308.26769)"
           id="path3040"
           style="fill:#334b6c" />
        <path
           d="m 569.34328,457.51429 c -2.5e-4,0.0114 2.5e-4,0.0149 0,0.0263 -1.99638,0.0901 -4.82051,0.7925 -7.51143,2.89777 -2.45937,1.9241 -5.69208,2.58967 -8.4262,2.57476 -3.95518,-0.0216 -9.10537,1.52327 -11.45455,5.17935 -1.34679,2.09602 -1.6763,4.24842 -1.6763,7.61092 0,6.12326 1.76376,8.67303 6.07322,11.37463 l 6.15511,3.58838 -0.12967,8.26492 0.0261,8.10915 17.07445,0 c 16.65139,0.36853 17.75365,0 17.75365,0 l 0.0261,-8.10915 10e-4,-8.88798 4.38936,-2.65379 c 4.42816,-2.7016 7.65832,-5.25137 7.65832,-11.37463 0,-3.3625 -0.65629,-5.5149 -2.04017,-7.61092 -2.41388,-3.65608 -7.36682,-5.20093 -11.43093,-5.17935 -2.80941,0.0149 -5.97887,-0.96219 -8.50597,-2.88629 -2.76892,-2.10822 -5.66898,-2.8093 -7.72081,-2.89777 1.4e-4,-0.015 -1.4e-4,-0.0113 0,-0.0263 -0.0417,8e-4 -0.0885,-0.002 -0.13086,0 -0.0422,-0.002 -0.0895,7.8e-4 -0.13086,0 z"
           id="CookHat"
           style="fill:#ffffff" />
      </g>
      <path
         d="m 357.56561,725.15196 c -9.49761,-6.35545 -18.71902,-16.07468 -20.09319,-21.17795 -2.05914,-7.64707 1.15978,-14.56592 8.4622,-18.18891 5.69941,-2.82768 11.21444,-2.16644 15.84569,1.89985 4.13225,3.62816 5.85798,7.04076 5.85798,11.58406 0,5.00456 1.36748,8.20439 5.18611,12.13524 4.63593,4.77217 5.22842,10.29143 1.54706,14.41126 -1.85451,2.07538 -3.69015,3.07418 -6.29085,3.42293 -3.27701,0.43944 -4.40869,-3.7e-4 -10.515,-4.08648 z m 13.31446,-1.50623 c 3.01079,-3.01079 2.82707,-5.31203 -0.75135,-9.411 -5.17369,-5.92629 -5.42698,-6.46539 -6.15533,-13.1005 -0.58234,-5.30492 -1.17802,-6.97219 -3.27188,-9.1577 -8.8897,-9.27886 -23.98525,-0.0297 -19.10716,11.70713 1.76838,4.25476 9.11527,11.91075 16.44328,17.13506 8.18722,5.83686 9.53574,6.13371 12.84244,2.82701 z m -10.50234,-3.3508 c -12.58021,-8.40075 -19.13701,-16.91417 -17.68017,-22.95615 0.74662,-3.09648 4.61047,-6.83682 7.70113,-7.45495 6.3777,-1.27554 11.75351,3.89411 11.75351,11.30277 0,4.87315 1.79755,9.02205 5.85441,13.51251 3.70673,4.1029 4.02881,5.66632 1.61697,7.849 -2.34265,2.12006 -2.90043,1.98413 -9.24585,-2.25318 z m 8.68309,0.0265 c 0.33886,-0.54829 -0.82258,-2.5027 -2.58098,-4.34316 -4.43871,-4.64583 -5.51117,-7.02145 -6.24073,-13.82394 -0.51718,-4.82216 -1.08028,-6.29032 -3.06855,-8.00055 -5.12426,-4.40771 -12.39098,-1.07049 -12.39098,5.69053 0,2.7176 0.84299,4.19483 4.80033,8.41191 5.76331,6.14159 14.87119,13.06209 17.19065,13.06209 0.92079,0 1.9514,-0.44859 2.29026,-0.99688 z M 351.79799,705.2931 c -2.77244,-2.4024 -3.43521,-3.56578 -3.20022,-5.61744 0.2494,-2.17739 0.76843,-2.63304 3.27429,-2.87454 3.57218,-0.34426 4.08814,0.62102 3.70305,6.92777 l -0.28052,4.59412 -3.4966,-3.02991 z"
         id="path3113"
         style="fill:#344c6d" />
    </g>
  </g>
</svg>
